Run_40005
nRows=4
nColumns=164

# SIMM Motion File Header:
name Run_40005
datacolumns 164
datarows 4
otherdata 1
range 0.00833300 0.03333300
endheader
time	pelvis_tilt	pelvis_list	pelvis_rotation	pelvis_tx	pelvis_ty	pelvis_tz	hip_flexion_r	hip_adduction_r	hip_rotation_r	knee_angle_r	ankle_angle_r	hip_flexion_l	hip_adduction_l	hip_rotation_l	knee_angle_l	ankle_angle_l	lumbar_extension	lumbar_bending	lumbar_rotation	arm_flex_r	arm_add_r	arm_rot_r	elbow_flex_r	pro_sup_r	arm_flex_l	arm_add_l	arm_rot_l	elbow_flex_l	pro_sup_l	subtalar_angle_r	mtp_angle_r	subtalar_angle_l	mtp_angle_l	wrist_flex_r	wrist_dev_r	wrist_flex_l	wrist_dev_l	LASI_tx	LASI_ty	LASI_tz	RASI_tx	RASI_ty	RASI_tz	LPSI_tx	LPSI_ty	LPSI_tz	RPSI_tx	RPSI_ty	RPSI_tz	RTH1_tx	RTH1_ty	RTH1_tz	RTH2_tx	RTH2_ty	RTH2_tz	RTH3_tx	RTH3_ty	RTH3_tz	LTH1_tx	LTH1_ty	LTH1_tz	LTH2_tx	LTH2_ty	LTH2_tz	LTH3_tx	LTH3_ty	LTH3_tz	RTB1_tx	RTB1_ty	RTB1_tz	RTB2_tx	RTB2_ty	RTB2_tz	RTB3_tx	RTB3_ty	RTB3_tz	LTB1_tx	LTB1_ty	LTB1_tz	LTB2_tx	LTB2_ty	LTB2_tz	LTB3_tx	LTB3_ty	LTB3_tz	RCAL_tx	RCAL_ty	RCAL_tz	RTOE_tx	RTOE_ty	RTOE_tz	RMT5_tx	RMT5_ty	RMT5_tz	LCAL_tx	LCAL_ty	LCAL_tz	LTOE_tx	LTOE_ty	LTOE_tz	LMT5_tx	LMT5_ty	LMT5_tz	LACR_tx	LACR_ty	LACR_tz	RACR_tx	RACR_ty	RACR_tz	CLAV_tx	CLAV_ty	CLAV_tz	C7_tx	C7_ty	C7_tz	RUA1_tx	RUA1_ty	RUA1_tz	RUA2_tx	RUA2_ty	RUA2_tz	RUA3_tx	RUA3_ty	RUA3_tz	RLEL_tx	RLEL_ty	RLEL_tz	RMEL_tx	RMEL_ty	RMEL_tz	LUA1_tx	LUA1_ty	LUA1_tz	LUA2_tx	LUA2_ty	LUA2_tz	LUA3_tx	LUA3_ty	LUA3_tz	LLEL_tx	LLEL_ty	LLEL_tz	LMEL_tx	LMEL_ty	LMEL_tz	RFAsuperior_tx	RFAsuperior_ty	RFAsuperior_tz	RFAradius_tx	RFAradius_ty	RFAradius_tz	RFAulna_tx	RFAulna_ty	RFAulna_tz	LFAsuperior_tx	LFAsuperior_ty	LFAsuperior_tz	LFAradius_tx	LFAradius_ty	LFAradius_tz	LFAulna_tx	LFAulna_ty	LFAulna_tz
      0.00833300	     -4.84668946	     -2.25594301	      4.37110965	      0.97873862	      1.06007264	     -0.31773175	     48.82766390	      2.18538271	     -6.38656527	    -68.14397001	     10.34697683	    -17.56196200	      0.38252959	     -0.87981005	    -20.05144293	     -8.66012796	     -9.00544935	      4.70512493	    -20.48784106	    -49.61177433	    -22.20057879	    -10.98048926	    110.90930237	    116.40126889	    -10.09648292	    -20.11897201	      3.64191070	    129.11174760	    103.16409332	      0.00000000	      0.00000000	      0.00000000	      0.00000000	      0.00000000	      0.00000000	      0.00000000	      0.00000000	      0.96648039	      1.06278117	     -0.44639809	      0.97928952	      1.08140653	     -0.19264229	      0.79376839	      1.11576187	     -0.34475938	      0.79798193	      1.11501940	     -0.25935189	      0.97305488	      0.93019418	     -0.13199671	      1.08272942	      0.87119119	     -0.14405558	      1.08811448	      0.74404515	     -0.17399780	      0.82108201	      0.87047166	     -0.48556522	      0.81951323	      0.73933487	     -0.46865622	      0.70849884	      0.66441182	     -0.44041229	      1.20628042	      0.50769659	     -0.26106809	      1.15433517	      0.45308375	     -0.19660825	      1.13315606	      0.35731755	     -0.26911891	      0.63462578	      0.43278381	     -0.37554445	      0.54976627	      0.38541259	     -0.41794003	      0.50256953	      0.28181090	     -0.34755984	      0.97245065	      0.24756510	     -0.29560077	      1.18974752	      0.16037977	     -0.29504855	      1.10840317	      0.14654441	     -0.21328965	      0.34356634	      0.25654916	     -0.31934612	      0.47880746	      0.06880438	     -0.29488704	      0.40562561	      0.09270099	     -0.37978676	      1.01470195	      1.55350507	     -0.46448012	      0.94203903	      1.56149883	     -0.13365894	      1.02013833	      1.50073156	     -0.25155077	      0.90179294	      1.58011015	     -0.31603089	      0.85928248	      1.50794180	     -0.06601829	      0.80925367	      1.43090602	     -0.07418560	      0.74262854	      1.47586019	     -0.08551416	      0.62963044	      1.38550639	     -0.05907485	      0.63246207	      1.38072040	     -0.14254296	      1.01609837	      1.46212564	     -0.53999269	      1.02625122	      1.39036758	     -0.53047814	      0.93496683	      1.37361880	     -0.56198406	      0.95653927	      1.21202416	     -0.61390121	      0.89115315	      1.19729093	     -0.55258718	      0.70399721	      1.31301405	     -0.03695665	      0.84134425	      1.20368463	     -0.08957230	      0.79901744	      1.17416822	     -0.03833724	      1.03970965	      1.23482680	     -0.56177561	      1.11913830	      1.29480657	     -0.41192281	      1.15415310	      1.23282785	     -0.42793530
      0.01666700	     -5.32312968	     -2.20782195	      3.53670124	      0.98216537	      1.06362543	     -0.31720930	     48.27191665	      2.79167029	     -5.80792803	    -61.69427932	     10.25175926	    -18.79864539	      0.49467045	     -2.77498363	    -19.15361911	    -12.44339066	     -7.91747559	      4.71544919	    -20.02956803	    -50.92961525	    -21.91243501	    -12.48748398	    111.50309779	    115.51211178	    -10.78628823	    -19.56342269	      4.18144414	    129.39042852	    103.83923236	      0.00000000	      0.00000000	      0.00000000	      0.00000000	      0.00000000	      0.00000000	      0.00000000	      0.00000000	      0.97128469	      1.06591452	     -0.44756636	      0.98055606	      1.08565187	     -0.19309900	      0.79865384	      1.12061236	     -0.34768029	      0.80083772	      1.11935390	     -0.26165195	      0.97238614	      0.93208611	     -0.13244010	      1.08106438	      0.87026595	     -0.14364475	      1.08458044	      0.74312711	     -0.17637630	      0.81963130	      0.87722027	     -0.48685950	      0.81347763	      0.74593839	     -0.46922539	      0.70102651	      0.67575842	     -0.43798641	      1.21451333	      0.50514782	     -0.26070378	      1.16826471	      0.44581270	     -0.19671200	      1.15594544	      0.34874757	     -0.26965372	      0.62250957	      0.44489121	     -0.37447209	      0.53742094	      0.39870614	     -0.41741381	      0.48979052	      0.29355829	     -0.34822047	      1.00628082	      0.22487763	     -0.29611211	      1.23058753	      0.15875773	     -0.29894121	      1.15214829	      0.13644794	     -0.21697008	      0.33680370	      0.27501218	     -0.32171285	      0.45423761	      0.07594865	     -0.29721878	      0.38305590	      0.10599477	     -0.38086971	      1.01531953	      1.55916482	     -0.46172276	      0.94030554	      1.56615893	     -0.13346075	      1.01914416	      1.50515689	     -0.24981653	      0.90175354	      1.58378174	     -0.31528965	      0.85635929	      1.51517122	     -0.06709851	      0.80621208	      1.43826586	     -0.07453371	      0.74064539	      1.48297903	     -0.09058414	      0.62648253	      1.39290678	     -0.06316651	      0.63179588	      1.38676362	     -0.14626240	      1.01687970	      1.46906889	     -0.53840284	      1.02701261	      1.39735360	     -0.52927721	      0.93581828	      1.38047238	     -0.56080169	      0.95717010	      1.21823393	     -0.61236734	      0.89151159	      1.20407429	     -0.55167890	      0.70018990	      1.32119180	     -0.03880470	      0.83967563	      1.21099495	     -0.08719097	      0.79578612	      1.18109255	     -0.03772644	      1.03964261	      1.24126439	     -0.55920938	      1.11722467	      1.30184978	     -0.40851852	      1.15299668	      1.23975139	     -0.42411632
      0.02500000	     -5.80190744	     -2.12169510	      2.80440025	      0.98530450	      1.06647501	     -0.31672943	     47.45803723	      3.36359048	     -5.10418274	    -54.91215066	     10.04226001	    -19.82497808	      0.65966588	     -4.60159717	    -18.71480254	    -15.27627128	     -6.85691224	      4.71504501	    -19.65235232	    -52.03165087	    -21.68955847	    -13.85407618	    112.10386510	    114.65403219	    -11.50586135	    -19.07408937	      4.69211141	    129.69917842	    104.34951746	      0.00000000	      0.00000000	      0.00000000	      0.00000000	      0.00000000	      0.00000000	      0.00000000	      0.00000000	      0.97556042	      1.06877402	     -0.44843325	      0.98173770	      1.08896581	     -0.19354268	      0.80287222	      1.12512258	     -0.35026754	      0.80361121	      1.12292980	     -0.26395964	      0.97129897	      0.93264809	     -0.13305776	      1.07925945	      0.86871327	     -0.14351558	      1.08075310	      0.74140687	     -0.17824682	      0.81842770	      0.88352651	     -0.48792463	      0.80831523	      0.75214323	     -0.46996014	      0.69475700	      0.68584673	     -0.43569482	      1.22157037	      0.50193955	     -0.26021992	      1.18115650	      0.43829490	     -0.19677927	      1.17782943	      0.34044904	     -0.26993471	      0.61159131	      0.45583392	     -0.37326929	      0.52611558	      0.41105516	     -0.41669885	      0.47698125	      0.30547506	     -0.34837175	      1.04015334	      0.20285096	     -0.29644679	      1.26997500	      0.15906132	     -0.30281853	      1.19523648	      0.12824728	     -0.22038727	      0.32853665	      0.29320005	     -0.32287252	      0.43074864	      0.08485567	     -0.29965591	      0.36127071	      0.12049248	     -0.38197200	      1.01589047	      1.56429175	     -0.45900570	      0.93861497	      1.57029407	     -0.13320334	      1.01826693	      1.50904240	     -0.24816840	      0.90171653	      1.58702100	     -0.31448269	      0.85377203	      1.52145513	     -0.06831404	      0.80360558	      1.44466962	     -0.07473665	      0.73891083	      1.48890194	     -0.09505589	      0.62394275	      1.39879922	     -0.06643224	      0.63123560	      1.39136285	     -0.14913553	      1.01745621	      1.47552506	     -0.53686961	      1.02761704	      1.40374835	     -0.52815296	      0.93653695	      1.38688386	     -0.55978072	      0.95750726	      1.22400777	     -0.61103998	      0.89131477	      1.21041600	     -0.55088740	      0.69722430	      1.32795957	     -0.04011446	      0.83889939	      1.21738660	     -0.08470020	      0.79364636	      1.18704091	     -0.03684201	      1.03932894	      1.24707053	     -0.55685349	      1.11529080	      1.30815853	     -0.40537485	      1.15156238	      1.24587816	     -0.42059024
      0.03333300	     -6.31250879	     -1.90593617	      2.19224660	      0.98792451	      1.06824704	     -0.31624603	     46.46829375	      3.80309831	     -4.16490827	    -47.95620712	     10.09346317	    -20.43782656	      0.95131667	     -6.18453875	    -19.15533922	    -16.48934497	     -5.82437508	      4.58160027	    -19.37021900	    -52.74835566	    -21.56972391	    -14.95251074	    112.65891937	    113.89886869	    -12.27783400	    -18.70217983	      5.14659270	    130.03278382	    104.57379510	      0.00000000	      0.00000000	      0.00000000	      0.00000000	      0.00000000	      0.00000000	      0.00000000	      0.00000000	      0.97905459	      1.07118607	     -0.44886961	      0.98280084	      1.09081473	     -0.19388508	      0.80616551	      1.12901789	     -0.35234302	      0.80617614	      1.12530849	     -0.26617398	      0.96965705	      0.93137005	     -0.13395895	      1.07718949	      0.86624208	     -0.14367554	      1.07637213	      0.73845494	     -0.17940571	      0.81774856	      0.88897169	     -0.48865707	      0.80477590	      0.75750594	     -0.47082545	      0.69057204	      0.69375980	     -0.43382498	      1.22668149	      0.49771880	     -0.25968803	      1.19226461	      0.43047837	     -0.19678565	      1.19803545	      0.33266123	     -0.26993432	      0.60257840	      0.46490295	     -0.37202687	      0.51634349	      0.42205726	     -0.41577673	      0.46421005	      0.31765506	     -0.34783251	      1.07380247	      0.18214195	     -0.29647769	      1.30675864	      0.16231463	     -0.30632310	      1.23680347	      0.12313166	     -0.22328371	      0.31793033	      0.31103818	     -0.32214214	      0.40899597	      0.09646367	     -0.30215296	      0.34072044	      0.13682174	     -0.38299839	      1.01639335	      1.56854599	     -0.45645901	      0.93704369	      1.57349104	     -0.13285720	      1.01759806	      1.51206692	     -0.24664342	      0.90167709	      1.58954624	     -0.31358536	      0.85174591	      1.52609014	     -0.06960678	      0.80171535	      1.44943044	     -0.07466793	      0.73758851	      1.49285403	     -0.09845937	      0.62237597	      1.40223671	     -0.06833819	      0.63088412	      1.39364538	     -0.15064873	      1.01774859	      1.48111019	     -0.53543396	      1.02798626	      1.40913209	     -0.52714046	      0.93703531	      1.39251556	     -0.55895794	      0.95736177	      1.22904317	     -0.61001182	      0.89032620	      1.21602996	     -0.55031139	      0.69564706	      1.33242775	     -0.04053616	      0.83955901	      1.22226819	     -0.08202769	      0.79328902	      1.19140888	     -0.03546390	      1.03860374	      1.25184288	     -0.55481351	      1.11331553	      1.31322988	     -0.40269728	      1.14966178	      1.25066231	     -0.41753834
